<svg width="19" height="22" viewBox="0 0 19 22" fill="none"
  xmlns="http://www.w3.org/2000/svg">
  <path opacity="0.7" d="M1.875 21.8063C1.44167 21.8063 1.0625 21.6438 0.7375 21.3188C0.4125 20.9938 0.25 20.6146 0.25 20.1813V3.85006H1.875V20.1813H14.7125V21.8063H1.875ZM5.125 18.5563C4.69167 18.5563 4.3125 18.3938 3.9875 18.0688C3.6625 17.7438 3.5 17.3646 3.5 16.9313V1.76465C3.5 1.33131 3.6625 0.952148 3.9875 0.627148C4.3125 0.302148 4.69167 0.139648 5.125 0.139648H17.0417C17.475 0.139648 17.8542 0.302148 18.1792 0.627148C18.5042 0.952148 18.6667 1.33131 18.6667 1.76465V16.9313C18.6667 17.3646 18.5042 17.7438 18.1792 18.0688C17.8542 18.3938 17.475 18.5563 17.0417 18.5563H5.125Z" fill="#235BEC"/>
</svg>
